#!OML:ASF H:\Terrain\Patient Classification 1\Walking\liu\liu.ASF
:FULLY-SPECIFIED
:DEGREES
243
root 9.196850 16.225599 -2.519570 10.180200 -4.608760 -3.775320
lowerback -3.719910 1.023525 0.440725
upperback -1.258405 1.306830 1.098635
thorax 0.752245 0.654670 0.996215
lowerneck -9.119000 -2.989570 -7.031750
upperneck 8.155400 -3.817130 7.754350
head 4.661155 -1.461425 3.358985
rclavicle 0.000000 -0.000000
rhumerus -22.605949 3.824780 -43.481998
rradius 21.482849
rwrist -11.017450
rhand -14.479900 -11.574150
rfingers 3.562510
rthumb -1.156425 -26.557751
lclavicle 0.000000 -0.000000
lhumerus -23.529200 -2.357285 44.146599
lradius 9.786650
lwrist -3.075280
lhand -3.415400 -12.252950
lfingers 3.562510
lthumb 9.516750 2.291380
rfemur 8.405200 1.907605 11.917800
rtibia 7.974950
rfoot 2.689840 2.213970
rtoes -7.860050
lfemur -23.440750 4.579805 -10.613400
ltibia 21.351650
lfoot -2.807830 2.571075
ltoes -0.020952
244
root 9.238380 16.261700 -2.358860 10.131200 -4.967070 -3.342080
lowerback -3.710470 1.089085 0.348550
upperback -1.264140 1.403410 0.977795
thorax 0.740210 0.702760 0.930825
lowerneck -9.219050 -3.043750 -6.913900
upperneck 8.266400 -3.888920 7.583600
head 4.716110 -1.499035 3.266960
rclavicle 0.000000 -0.000000
rhumerus -22.759399 3.785055 -43.504700
rradius 21.269251
rwrist -11.172800
rhand -14.627700 -11.684350
rfingers 3.562510
rthumb -1.299190 -26.666300
lclavicle 0.000000 -0.000000
lhumerus -23.233200 -2.488475 44.102749
lradius 9.711150
lwrist -2.945915
lhand -3.024475 -11.284550
lfingers 3.562510
lthumb 9.892650 3.221970
rfemur 7.437050 1.549465 11.399350
rtibia 10.031300
rfoot 3.163120 2.341685
rtoes -7.145750
lfemur -23.011700 4.589020 -10.883400
ltibia 21.304800
lfoot -3.171225 2.575155
ltoes 0.441480
245
root 9.273260 16.299000 -2.207590 10.039600 -5.206670 -2.704710
lowerback -3.532860 1.061370 0.033707
upperback -1.362400 1.394180 0.924270
thorax 0.528510 0.700600 1.040550
lowerneck -9.292050 -3.024000 -6.925300
upperneck 8.443400 -3.840905 7.461400
head 4.776665 -1.485600 3.236550
rclavicle -0.000000 0.000000
rhumerus -23.175850 4.111585 -43.651051
rradius 21.287701
rwrist -11.675350
rhand -15.210250 -12.205750
rfingers 3.562510
rthumb -1.861750 -27.179350
lclavicle -0.000000 0.000000
lhumerus -23.086451 -2.431720 44.090450
lradius 9.620200
lwrist -3.066280
lhand -3.061205 -10.905600
lfingers 3.562510
lthumb 9.857350 3.604550
rfemur 6.577000 1.151840 10.819550
rtibia 11.907900
rfoot 3.513585 2.517880
rtoes -7.786900
lfemur -22.607849 4.573140 -11.300700
ltibia 21.252100
lfoot -3.403585 2.585665
ltoes 0.003925
246
root 9.311210 16.330601 -2.056900 9.938530 -5.502410 -2.127790
lowerback -3.377955 1.026915 -0.226333
upperback -1.453740 1.368460 0.880465
thorax 0.339401 0.691030 1.130040
lowerneck -9.328200 -2.978605 -6.934750
upperneck 8.635600 -3.763995 7.344350
head 4.831560 -1.459970 3.213025
rclavicle 0.000000 0.000000
rhumerus -23.340651 4.294130 -43.722301
rradius 20.882151
rwrist -11.894750
rhand -15.451900 -11.743650
rfingers 3.562510
rthumb -2.095145 -26.712900
lclavicle 0.000000 0.000000
lhumerus -22.977751 -2.290240 43.994400
lradius 9.648250
lwrist -3.398030
lhand -3.534855 -11.522400
lfingers 3.562510
lthumb 9.401900 3.033190
rfemur 5.805750 0.929305 10.302200
rtibia 13.691150
rfoot 3.973950 2.528835
rtoes -8.028950
lfemur -22.190599 4.635860 -11.700200
ltibia 21.160749
lfoot -3.656595 2.604635
ltoes -0.705645
247
root 9.355600 16.358601 -1.900360 9.762380 -5.854430 -1.799920
lowerback -3.192645 1.026890 -0.337999
upperback -1.534835 1.376955 0.873460
thorax 0.147833 0.698370 1.175915
lowerneck -9.236850 -2.925805 -6.976500
upperneck 8.738500 -3.688545 7.292650
head 4.836960 -1.436260 3.216710
rclavicle -0.000000 -0.000000
rhumerus -23.404400 4.121735 -43.400002
rradius 20.280550
rwrist -10.964850
rhand -14.575900 -11.263050
rfingers 3.562510
rthumb -1.249165 -26.245600
lclavicle -0.000000 -0.000000
lhumerus -22.879000 -2.381520 44.113449
lradius 9.978300
lwrist -3.651035
lhand -3.680865 -11.284900
lfingers 3.562510
lthumb 9.261450 3.284135
rfemur 5.101850 0.685125 9.877050
rtibia 15.397200
rfoot 4.781065 2.441495
rtoes -7.687550
lfemur -21.687000 4.777665 -11.957450
ltibia 21.049601
lfoot -4.040790 2.657290
ltoes -0.333201
248
root 9.395610 16.395399 -1.754490 9.619480 -6.100110 -1.248240
lowerback -2.744250 0.959265 -0.655495
upperback -1.815345 1.305530 0.889515
thorax -0.402284 0.674950 1.341465
lowerneck -9.172050 -2.818295 -6.938750
upperneck 9.062900 -3.548155 7.110100
head 4.904605 -1.388880 3.175445
rclavicle 0.000000 -0.000000
rhumerus -24.171000 4.791330 -43.791649
rradius 20.525200
rwrist -12.079350
rhand -15.040700 -12.245350
rfingers 3.562510
rthumb -1.698015 -27.221701
lclavicle 0.000000 -0.000000
lhumerus -23.125750 -2.745130 44.633148
lradius 9.937150
lwrist -2.046160
lhand -4.524080 -11.871950
lfingers 3.562510
lthumb 8.450050 2.770380
rfemur 4.285650 0.267053 9.354200
rtibia 17.023649
rfoot 5.317400 2.430865
rtoes -7.944400
lfemur -21.188450 4.763495 -12.280050
ltibia 20.867849
lfoot -4.412920 2.715620
ltoes 1.296520
249
root 9.430330 16.425501 -1.621850 9.475000 -6.408980 -1.321080
lowerback -2.918730 1.004440 -0.472504
upperback -1.495505 1.354725 0.832055
thorax 0.033135 0.689065 1.196755
lowerneck -9.656900 -2.870155 -6.780900
upperneck 9.022750 -3.585285 7.044650
head 4.977960 -1.383520 3.114575
rclavicle 0.000000 0.000000
rhumerus -23.749001 4.860390 -43.951801
rradius 20.368500
rwrist -12.708800
rhand -14.961450 -13.489250
rfingers 3.562510
rthumb -1.621490 -28.466801
lclavicle 0.000000 0.000000
lhumerus -22.214951 -2.774330 44.380951
lradius 9.901450
lwrist -2.561235
lhand -4.624385 -11.922350
lfingers 3.562510
lthumb 8.353500 2.728175
rfemur 3.442715 0.138767 9.324600
rtibia 18.598700
rfoot 5.617350 1.990930
rtoes -7.975650
lfemur -20.691851 4.660065 -12.155450
ltibia 20.635401
lfoot -4.633350 2.844500
ltoes 2.445095
250
root 9.465960 16.457100 -1.478320 9.372110 -6.735660 -1.124320
lowerback -3.039860 1.032210 -0.459680
upperback -1.336070 1.390165 0.770960
thorax 0.266502 0.702740 1.137905
lowerneck -9.780550 -2.863160 -6.711100
upperneck 8.945750 -3.561310 6.997900
head 4.965205 -1.367970 3.085510
rclavicle -0.000000 0.000000
rhumerus -23.563499 5.004800 -44.186798
rradius 19.984051
rwrist -13.679100
rhand -16.092951 -11.479550
rfingers 3.562510
rthumb -2.714120 -26.434799
lclavicle -0.000000 0.000000
lhumerus -21.728251 -3.200320 44.540199
lradius 10.158300
lwrist -2.418670
lhand -4.807320 -11.378800
lfingers 3.562510
lthumb 8.177350 3.286415
rfemur 2.619140 0.079318 9.134100
rtibia 20.167000
rfoot 5.942350 1.565860
rtoes -8.188400
lfemur -20.161400 4.548970 -12.228400
ltibia 20.334551
lfoot -4.768055 3.022530
ltoes 2.035095
251
root 9.498330 16.493099 -1.332860 9.046710 -7.147600 -0.390475
lowerback -2.993050 1.050860 -0.759795
upperback -1.207125 1.432160 0.666805
thorax 0.361661 0.723080 1.202660
lowerneck -9.960350 -2.851190 -6.705850
upperneck 8.974950 -3.525840 6.996950
head 5.002900 -1.344575 3.090555
rclavicle 0.000000 -0.000000
rhumerus -23.244301 4.559725 -43.692699
rradius 19.837450
rwrist -11.928200
rhand -15.283650 -13.595800
rfingers 3.562510
rthumb -1.932660 -28.568150
lclavicle 0.000000 -0.000000
lhumerus -21.235001 -3.305190 44.410999
lradius 10.180150
lwrist -2.549090
lhand -4.491215 -11.723250
lfingers 3.562510
lthumb 8.481650 2.916385
rfemur 1.886360 0.003893 8.619400
rtibia 21.686850
rfoot 6.177750 1.227400
rtoes -8.792400
lfemur -19.517950 4.584340 -12.651650
ltibia 20.023849
lfoot -4.945645 3.131435
ltoes 1.569800
